<svg width="260" height="260" viewBox="0 0 260 260" fill="none" xmlns="http://www.w3.org/2000/svg">
<rect width="260" height="260" rx="130" fill="#5E16F7"/>
<path d="M101.486 78.4641H136.83L152.553 141.088C154.076 146.642 154.837 152.6 154.837 158.961H156.987C156.987 152.6 157.749 146.642 159.272 141.088L174.861 78.4641H210.338V181H188.702V113.539C188.702 111.03 188.747 108.566 188.837 106.147C188.926 103.729 189.195 100.638 189.643 96.8749L187.493 96.6061C186.687 102.34 185.567 107.984 184.133 113.539L166.529 181H145.296L127.691 113.539C126.258 107.984 125.138 102.34 124.332 96.6061L122.182 96.8749C122.63 100.638 122.898 103.729 122.988 106.147C123.078 108.566 123.122 111.03 123.122 113.539V181H101.486V78.4641Z" fill="white"/>
<path d="M48.9316 161.514H61.967C65.0131 161.514 67.2976 160.797 68.8206 159.364C70.4333 157.931 71.2396 155.601 71.2396 152.376V78.4641H93.01V152.645C93.01 159.902 91.9797 165.591 89.9191 169.712C87.8585 173.743 84.5885 176.655 80.109 178.447C75.7191 180.149 69.6718 181 61.967 181H48.9316V161.514Z" fill="white"/>
</svg>
