<svg class="w-full h-full absolute top-0 right-0 bottom-0 object-contain" viewBox="0 0 387 451" fill="none" xmlns="http://www.w3.org/2000/svg">
<path d="M126.056 402.502C104.02 382.356 97.5861 340.03 106.767 309.367C122.687 328.699 144.745 334.826 167.593 338.279C202.865 343.616 237.505 341.621 270.27 325.499C274.019 323.655 277.483 321.196 281.578 318.714C284.653 327.631 285.453 336.635 284.379 345.801C281.768 368.123 270.66 385.366 252.993 398.434C245.928 403.663 238.452 408.336 231.155 413.268C208.74 428.414 202.675 446.18 211.098 472.023C211.298 472.652 211.477 473.282 211.93 474.818C200.485 469.696 192.125 462.238 185.755 452.433C179.027 442.082 175.826 430.634 175.658 418.248C175.574 412.219 175.574 406.136 174.763 400.195C172.783 385.708 165.982 379.22 153.168 378.844C140.018 378.464 129.615 386.59 126.856 399.395C126.646 400.376 126.341 401.346 126.035 402.488L126.056 402.502Z" fill="white"/>
<path d="M0.280273 304.255C0.280273 304.255 65.5352 272.469 130.973 272.469L180.31 119.778C182.158 112.393 187.551 107.375 193.639 107.375C199.728 107.375 205.122 112.393 206.969 119.778L256.306 272.469C333.806 272.469 387 304.255 387 304.255C387 304.255 276.157 2.30402 275.941 1.69818C272.759 -7.22898 267.389 -12.9786 260.149 -12.9786H127.141C119.901 -12.9786 114.748 -7.22898 111.35 1.69818C111.11 2.2928 0.280273 304.255 0.280273 304.255Z" fill="white"/>
</svg>
