<svg class="w-full h-full absolute top-0 right-0 bottom-0 object-contain" viewBox="0 0 477 451" fill="none" xmlns="http://www.w3.org/2000/svg">
<path d="M126.454 389.154C130.764 401.013 125.377 415.029 113.526 419.341C101.675 423.654 87.6697 418.264 83.3603 406.404C79.051 394.544 84.4376 380.528 96.2884 376.215C108.139 371.902 121.067 377.293 126.454 389.154Z" fill="white"/>
<path d="M242.805 341.713C247.114 353.573 241.728 367.589 229.877 371.901C218.026 376.214 204.021 370.824 199.712 358.964C195.402 347.105 200.789 333.088 212.64 328.776C224.49 324.463 237.419 329.853 242.805 341.713Z" fill="white"/>
<path d="M359.166 295.347C363.475 307.207 358.088 321.224 346.237 325.536C334.387 329.849 320.381 324.458 316.072 312.598C311.762 300.738 317.149 286.722 329 282.41C340.851 277.019 353.779 283.488 359.166 295.347Z" fill="white"/>
<path d="M475.516 247.917C479.825 259.777 474.439 273.793 462.588 278.105C450.737 282.418 436.732 277.027 432.423 265.168C428.114 253.308 433.5 239.291 445.351 234.979C457.202 229.589 470.13 236.057 475.516 247.917Z" fill="white"/>
<path d="M44.5809 186.458C48.8903 198.318 43.5036 212.334 31.6529 216.647C19.8021 220.96 5.7966 215.569 1.48724 203.709C-2.82213 191.849 2.56458 177.833 14.4153 173.521C25.1888 169.208 39.1943 174.598 44.5809 186.458Z" fill="white"/>
<path d="M160.932 139.018C165.241 150.878 159.855 164.895 148.004 169.207C136.153 173.52 122.148 168.129 117.839 156.269C113.53 144.409 118.916 130.393 130.767 126.081C142.618 121.768 155.546 127.159 160.932 139.018Z" fill="white"/>
<path d="M277.283 92.6577C281.593 104.517 276.206 118.533 264.355 122.846C252.504 127.158 238.499 121.768 234.189 109.908C229.88 98.048 235.267 84.0322 247.118 79.7196C258.968 74.3288 271.896 80.7977 277.283 92.6577Z" fill="white"/>
<path d="M393.634 45.2177C397.944 57.0774 392.557 70.0153 380.706 75.4061C368.855 79.7186 354.85 74.3279 350.54 62.4682C346.231 50.6085 351.618 36.5924 363.468 32.2798C375.319 26.8891 388.247 33.358 393.634 45.2177Z" fill="white"/>
<path d="M143.697 264.09C148.006 275.95 142.62 289.966 130.769 294.279C118.918 298.591 104.913 293.2 100.604 281.341C96.2947 269.481 101.681 255.465 113.532 251.152C125.383 246.84 138.311 252.231 143.697 264.09Z" fill="white"/>
<path d="M260.048 216.642C264.358 228.502 258.971 242.517 247.121 246.83C235.269 251.142 221.264 245.752 216.954 233.892C212.645 222.033 218.032 208.017 229.883 203.704C241.733 199.391 254.661 204.782 260.048 216.642Z" fill="white"/>
<path d="M341.922 419.336C346.231 431.196 340.844 445.212 328.994 449.525C317.143 453.838 303.137 448.446 298.828 436.587C294.519 424.727 299.906 410.711 311.756 406.398C323.607 402.086 336.535 407.477 341.922 419.336Z" fill="white"/>
<path d="M178.166 13.9543C182.476 25.814 177.089 39.83 165.238 44.1427C153.388 49.5335 139.383 44.1427 135.073 32.283C130.764 20.4232 136.15 6.40721 148.001 2.09458C159.852 -3.29619 172.78 2.09459 178.166 13.9543Z" fill="white"/>
<path d="M376.4 170.294C380.709 182.154 375.322 196.169 363.471 200.482C351.621 204.795 337.615 199.404 333.306 187.544C328.997 175.684 334.384 161.669 346.234 157.356C358.085 151.965 371.013 158.434 376.4 170.294Z" fill="white"/>
</svg>
